<svg width="20" height="20" viewBox="0 0 20 20" fill="none" xmlns="http://www.w3.org/2000/svg">
<path d="M18.4615 0H1.53846C1.13044 0 0.739122 0.191558 0.450605 0.532533C0.162087 0.873508 0 1.33597 0 1.81818V18.1818C0 18.664 0.162087 19.1265 0.450605 19.4675C0.739122 19.8084 1.13044 20 1.53846 20H18.4615C18.8696 20 19.2609 19.8084 19.5494 19.4675C19.8379 19.1265 20 18.664 20 18.1818V1.81818C20 1.33597 19.8379 0.873508 19.5494 0.532533C19.2609 0.191558 18.8696 0 18.4615 0ZM18.4615 1.81818V13.4943L15.9548 10.533C15.8119 10.3641 15.6423 10.2301 15.4557 10.1387C15.269 10.0473 15.0689 10.0003 14.8668 10.0003C14.6648 10.0003 14.4647 10.0473 14.278 10.1387C14.0913 10.2301 13.9217 10.3641 13.7788 10.533L11.8558 12.8057L7.625 7.80568C7.33651 7.46496 6.94535 7.27357 6.5375 7.27357C6.12965 7.27357 5.73849 7.46496 5.45 7.80568L1.53846 12.4284V1.81818H18.4615ZM1.53846 15L6.53846 9.09091L14.2308 18.1818H1.53846V15ZM18.4615 18.1818H16.4067L12.9452 14.0909L14.8683 11.8182L18.4615 16.0659V18.1818ZM11.5385 6.81818C11.5385 6.54848 11.6061 6.28483 11.7329 6.06059C11.8597 5.83634 12.0399 5.66156 12.2508 5.55835C12.4616 5.45514 12.6936 5.42813 12.9174 5.48075C13.1412 5.53336 13.3468 5.66324 13.5082 5.85394C13.6696 6.04465 13.7795 6.28763 13.824 6.55215C13.8685 6.81667 13.8457 7.09085 13.7583 7.34002C13.671 7.58919 13.5231 7.80217 13.3333 7.952C13.1436 8.10184 12.9205 8.18182 12.6923 8.18182C12.3863 8.18182 12.0928 8.03815 11.8764 7.78242C11.66 7.52669 11.5385 7.17984 11.5385 6.81818Z" fill="#7E88C3"/>
</svg>
