<svg width="40" height="40" viewBox="0 0 40 40" fill="none" xmlns="http://www.w3.org/2000/svg">
<path d="M20 40C31.0457 40 40 31.0457 40 20C40 8.9543 31.0457 0 20 0C8.9543 0 0 8.9543 0 20C0 31.0457 8.9543 40 20 40Z" fill="white"/>
<path d="M15.9125 16.375C15.8949 15.5627 16.1196 14.7636 16.5581 14.0796C16.9966 13.3956 17.6289 12.8578 18.3744 12.5347C19.1198 12.2116 19.9447 12.1179 20.7436 12.2656C21.5425 12.4133 22.2793 12.7957 22.86 13.364C23.4407 13.9322 23.8389 14.6606 24.0039 15.4561C24.1688 16.2517 24.093 17.0783 23.7862 17.8306C23.4793 18.5829 22.9552 19.2267 22.2809 19.6799C21.6065 20.1331 20.8125 20.3751 20 20.375C18.9277 20.386 17.8949 19.9709 17.1285 19.2209C16.3621 18.4709 15.9247 17.4473 15.9125 16.375ZM12.5 27.7113H13.86C13.8924 26.1053 14.5532 24.576 15.7004 23.4517C16.8476 22.3274 18.3899 21.6976 19.9962 21.6976C21.6026 21.6976 23.1449 22.3274 24.2921 23.4517C25.4393 24.576 26.1001 26.1053 26.1325 27.7113H27.5C27.4888 26.2418 27.0377 24.8095 26.2049 23.5988C25.3721 22.3881 24.1958 21.4546 22.8275 20.9188C23.622 20.4546 24.2818 19.7915 24.7421 18.9947C25.2024 18.198 25.4472 17.2951 25.4525 16.375C25.422 14.9481 24.8337 13.59 23.8138 12.5917C22.7938 11.5934 21.4234 11.0343 19.9962 11.0343C18.5691 11.0343 17.1987 11.5934 16.1787 12.5917C15.1588 13.59 14.5705 14.9481 14.54 16.375C14.5453 17.2951 14.7901 18.198 15.2504 18.9947C15.7107 19.7915 16.3705 20.4546 17.165 20.9188C15.7976 21.455 14.6222 22.3887 13.7907 23.5995C12.9591 24.8103 12.5096 26.2425 12.5 27.7113Z" fill="#7C5DFA"/>
</svg>
