<svg width="226" height="40" viewBox="0 0 226 40" fill="none" xmlns="http://www.w3.org/2000/svg">
<rect width="40" height="40" rx="20" fill="#7C5DFA"/>
<mask id="mask0_21_325" style="mask-type:luminance" maskUnits="userSpaceOnUse" x="0" y="0" width="40" height="40">
<rect width="40" height="40" rx="20" fill="white"/>
</mask>
<g mask="url(#mask0_21_325)">
<path d="M40 20.1942H20C8.95431 20.1942 0 29.1485 0 40.1942V40.1942C0 51.2399 8.95431 60.1942 20 60.1942H40V20.1942Z" fill="#9277FF"/>
</g>
<path fill-rule="evenodd" clip-rule="evenodd" d="M16.5803 12.929L20.1942 20.1941L23.8081 12.929C26.2775 14.2294 27.9612 16.821 27.9612 19.8058C27.9612 24.0954 24.4838 27.5728 20.1942 27.5728C15.9046 27.5728 12.4272 24.0954 12.4272 19.8058C12.4272 16.821 14.1109 14.2294 16.5803 12.929Z" fill="white"/>
<path d="M53.692 5.24H59.074V29H53.692V5.24ZM72.2953 13.79C73.3273 13.79 74.3353 14 75.3193 14.42C76.3033 14.84 77.1133 15.506 77.7493 16.418C78.3853 17.318 78.7033 18.506 78.7033 19.982V29H73.2133V20.882C73.2133 19.826 72.9613 19.034 72.4573 18.506C71.9533 17.966 71.2933 17.696 70.4773 17.696C69.9373 17.696 69.4273 17.84 68.9473 18.128C68.4793 18.404 68.0953 18.8 67.7953 19.316C67.5073 19.82 67.3633 20.402 67.3633 21.062V29H61.8913V14.222H67.3633V16.4C67.5073 16.004 67.8073 15.608 68.2633 15.212C68.7313 14.804 69.3133 14.468 70.0093 14.204C70.7173 13.928 71.4793 13.79 72.2953 13.79ZM79.4261 14.222H85.2761L88.8401 24.032L92.4221 14.222H98.2361L92.0441 29H85.6361L79.4261 14.222ZM106.845 29.432C105.225 29.432 103.785 29.102 102.525 28.442C101.277 27.77 100.293 26.852 99.5726 25.688C98.8646 24.512 98.5106 23.168 98.5106 21.656C98.5106 20.144 98.8646 18.8 99.5726 17.624C100.293 16.436 101.277 15.5 102.525 14.816C103.785 14.132 105.225 13.79 106.845 13.79C108.465 13.79 109.893 14.132 111.129 14.816C112.365 15.5 113.331 16.436 114.027 17.624C114.723 18.8 115.071 20.144 115.071 21.656C115.071 23.168 114.723 24.512 114.027 25.688C113.331 26.852 112.365 27.77 111.129 28.442C109.893 29.102 108.465 29.432 106.845 29.432ZM106.845 24.932C107.469 24.932 108.009 24.794 108.465 24.518C108.921 24.242 109.275 23.852 109.527 23.348C109.779 22.844 109.905 22.274 109.905 21.638C109.905 20.99 109.779 20.414 109.527 19.91C109.275 19.406 108.921 19.01 108.465 18.722C108.009 18.434 107.469 18.29 106.845 18.29C106.221 18.29 105.675 18.434 105.207 18.722C104.751 19.01 104.391 19.406 104.127 19.91C103.875 20.414 103.749 20.99 103.749 21.638C103.749 22.274 103.875 22.844 104.127 23.348C104.391 23.852 104.751 24.242 105.207 24.518C105.675 24.794 106.221 24.932 106.845 24.932ZM116.973 29V14.222H122.445V29H116.973ZM119.781 11.18C118.917 11.18 118.185 10.88 117.585 10.28C116.985 9.668 116.685 8.942 116.685 8.102C116.685 7.262 116.985 6.536 117.585 5.924C118.197 5.3 118.929 4.988 119.781 4.988C120.345 4.988 120.861 5.132 121.329 5.42C121.797 5.696 122.175 6.068 122.463 6.536C122.751 7.004 122.895 7.526 122.895 8.102C122.895 8.942 122.589 9.668 121.977 10.28C121.365 10.88 120.633 11.18 119.781 11.18ZM133.1 25.13C133.784 25.13 134.348 25.016 134.792 24.788C135.236 24.548 135.536 24.356 135.692 24.212L138.194 27.92C138.002 28.076 137.672 28.28 137.204 28.532C136.736 28.772 136.148 28.982 135.44 29.162C134.744 29.342 133.946 29.432 133.046 29.432C131.354 29.432 129.866 29.114 128.582 28.478C127.298 27.83 126.296 26.918 125.576 25.742C124.868 24.566 124.514 23.186 124.514 21.602C124.514 20.006 124.868 18.626 125.576 17.462C126.296 16.298 127.298 15.398 128.582 14.762C129.866 14.114 131.354 13.79 133.046 13.79C133.934 13.79 134.726 13.886 135.422 14.078C136.13 14.258 136.724 14.468 137.204 14.708C137.684 14.936 138.02 15.134 138.212 15.302L135.656 19.046C135.572 18.962 135.416 18.842 135.188 18.686C134.972 18.53 134.69 18.392 134.342 18.272C133.994 18.152 133.58 18.092 133.1 18.092C132.512 18.092 131.96 18.242 131.444 18.542C130.94 18.842 130.532 19.256 130.22 19.784C129.908 20.312 129.752 20.918 129.752 21.602C129.752 22.286 129.908 22.898 130.22 23.438C130.532 23.966 130.94 24.38 131.444 24.68C131.96 24.98 132.512 25.13 133.1 25.13ZM143.649 22.772C143.685 23.3 143.853 23.768 144.153 24.176C144.453 24.584 144.867 24.908 145.395 25.148C145.935 25.376 146.571 25.49 147.303 25.49C147.999 25.49 148.623 25.418 149.175 25.274C149.739 25.13 150.225 24.95 150.633 24.734C151.053 24.518 151.377 24.296 151.605 24.068L153.729 27.452C153.429 27.776 153.003 28.094 152.451 28.406C151.911 28.706 151.197 28.952 150.309 29.144C149.421 29.336 148.299 29.432 146.943 29.432C145.311 29.432 143.859 29.126 142.587 28.514C141.315 27.902 140.313 27.002 139.581 25.814C138.849 24.626 138.483 23.174 138.483 21.458C138.483 20.018 138.795 18.722 139.419 17.57C140.055 16.406 140.973 15.488 142.173 14.816C143.373 14.132 144.819 13.79 146.511 13.79C148.119 13.79 149.511 14.084 150.687 14.672C151.875 15.26 152.787 16.136 153.423 17.3C154.071 18.452 154.395 19.892 154.395 21.62C154.395 21.716 154.389 21.908 154.377 22.196C154.377 22.484 154.365 22.676 154.341 22.772H143.649ZM149.247 19.91C149.235 19.526 149.133 19.148 148.941 18.776C148.749 18.392 148.461 18.08 148.077 17.84C147.693 17.588 147.201 17.462 146.601 17.462C146.001 17.462 145.491 17.582 145.071 17.822C144.663 18.05 144.351 18.35 144.135 18.722C143.919 19.094 143.799 19.49 143.775 19.91H149.247ZM172.186 5.24H177.532L186.91 29H181.168L179.44 24.23H170.296L168.55 29H162.79L172.186 5.24ZM172.096 19.514H177.658L174.904 11.72H174.85L172.096 19.514ZM193.085 36.488H187.667V14.222H193.139V16.382C193.307 16.046 193.625 15.68 194.093 15.284C194.573 14.876 195.179 14.528 195.911 14.24C196.655 13.94 197.495 13.79 198.431 13.79C199.871 13.79 201.101 14.144 202.121 14.852C203.153 15.56 203.945 16.508 204.497 17.696C205.049 18.872 205.325 20.18 205.325 21.62C205.325 23.06 205.031 24.374 204.443 25.562C203.855 26.738 203.027 27.68 201.959 28.388C200.903 29.084 199.655 29.432 198.215 29.432C197.183 29.432 196.301 29.252 195.569 28.892C194.849 28.52 194.279 28.112 193.859 27.668C193.451 27.212 193.193 26.858 193.085 26.606V36.488ZM199.979 21.62C199.979 20.948 199.829 20.348 199.529 19.82C199.229 19.28 198.821 18.86 198.305 18.56C197.801 18.248 197.231 18.092 196.595 18.092C195.935 18.092 195.341 18.248 194.813 18.56C194.297 18.86 193.889 19.28 193.589 19.82C193.289 20.348 193.139 20.948 193.139 21.62C193.139 22.292 193.289 22.898 193.589 23.438C193.889 23.966 194.297 24.38 194.813 24.68C195.341 24.98 195.935 25.13 196.595 25.13C197.231 25.13 197.801 24.98 198.305 24.68C198.821 24.38 199.229 23.966 199.529 23.438C199.829 22.898 199.979 22.292 199.979 21.62ZM212.351 36.488H206.933V14.222H212.405V16.382C212.573 16.046 212.891 15.68 213.359 15.284C213.839 14.876 214.445 14.528 215.177 14.24C215.921 13.94 216.761 13.79 217.697 13.79C219.137 13.79 220.367 14.144 221.387 14.852C222.419 15.56 223.211 16.508 223.763 17.696C224.315 18.872 224.591 20.18 224.591 21.62C224.591 23.06 224.297 24.374 223.709 25.562C223.121 26.738 222.293 27.68 221.225 28.388C220.169 29.084 218.921 29.432 217.481 29.432C216.449 29.432 215.567 29.252 214.835 28.892C214.115 28.52 213.545 28.112 213.125 27.668C212.717 27.212 212.459 26.858 212.351 26.606V36.488ZM219.245 21.62C219.245 20.948 219.095 20.348 218.795 19.82C218.495 19.28 218.087 18.86 217.571 18.56C217.067 18.248 216.497 18.092 215.861 18.092C215.201 18.092 214.607 18.248 214.079 18.56C213.563 18.86 213.155 19.28 212.855 19.82C212.555 20.348 212.405 20.948 212.405 21.62C212.405 22.292 212.555 22.898 212.855 23.438C213.155 23.966 213.563 24.38 214.079 24.68C214.607 24.98 215.201 25.13 215.861 25.13C216.497 25.13 217.067 24.98 217.571 24.68C218.087 24.38 218.495 23.966 218.795 23.438C219.095 22.898 219.245 22.292 219.245 21.62Z" fill="black"/>
</svg>
