<svg width="104" height="104" viewBox="0 0 104 104" fill="none" xmlns="http://www.w3.org/2000/svg">
<path d="M0 0H84C95.0457 0 104 8.95431 104 20V84C104 95.0457 95.0457 104 84 104H0V0Z" fill="#7C5DFA"/>
<mask id="mask0_1_33" style="mask-type:luminance" maskUnits="userSpaceOnUse" x="0" y="0" width="104" height="104">
<path d="M0 0H84C95.0457 0 104 8.95431 104 20V84C104 95.0457 95.0457 104 84 104H0V0Z" fill="white"/>
</mask>
<g mask="url(#mask0_1_33)">
<path d="M104 52.5049H20C8.95431 52.5049 0 61.4592 0 72.5049V136.505C0 147.551 8.95431 156.505 20 156.505H104V52.5049Z" fill="#9277FF"/>
</g>
<path fill-rule="evenodd" clip-rule="evenodd" d="M43.1086 33.6154L52.5047 52.5047L61.9008 33.6154C68.3213 36.9964 72.6989 43.7345 72.6989 51.495C72.6989 62.648 63.6577 71.6892 52.5047 71.6892C41.3518 71.6892 32.3105 62.648 32.3105 51.495C32.3105 43.7345 36.6881 36.9964 43.1086 33.6154Z" fill="white"/>
</svg>
